<?xml version="1.0" encoding="utf-8"?><svg xmlns="http://www.w3.org/2000/svg" xmlns:xlink="http://www.w3.org/1999/xlink"><symbol fill="none" viewBox="0 0 9 6" id="drop" xmlns="http://www.w3.org/2000/svg"><path d="M4.303 0l4 6h-8l4-6z" fill="#F2994A"/></symbol><symbol fill="none" viewBox="0 0 28 14" id="drop-arrow" xmlns="http://www.w3.org/2000/svg"><path d="M14 0l14 14H0L14 0z" fill="#252830"/></symbol><symbol fill="none" viewBox="0 0 46 46" id="logo" xmlns="http://www.w3.org/2000/svg"><path d="M44 23c0 11.598-9.402 21-21 21S2 34.598 2 23 11.402 2 23 2s21 9.402 21 21z" stroke="#2D9CDB" stroke-width="4"/><path d="M13.462 19.64c1.056 0 1.878.264 2.466.792.588.528.882 1.392.882 2.592V29h-2.682v-5.418c0-1.152-.576-1.728-1.728-1.728-.276 0-.558.042-.846.126-.288.084-.51.186-.666.306L10.852 29H8.188V16.292h2.7v4.014a5.379 5.379 0 012.574-.666zm5.604 6.822h2.61V29h-2.61v-2.538zM24.411 29V15.992h2.558l3.603 10.064 3.71-10.064h2.284V29h-1.722V18.418l-3.586 9.712h-1.784l-3.48-9.738V29H24.41z" fill="#fff"/></symbol><symbol fill="none" viewBox="0 0 22 14" id="menu-burger" xmlns="http://www.w3.org/2000/svg"><path d="M0 1h22M0 7h22M0 13h22" stroke="#F2994A" stroke-width="2"/></symbol><symbol fill="none" viewBox="0 0 18 18" id="phone" xmlns="http://www.w3.org/2000/svg"><path d="M3.62 7.79c1.44 2.83 3.76 5.14 6.59 6.59l2.2-2.2a.996.996 0 011.02-.24c1.12.371 2.33.57 3.57.57.55 0 1 .45 1 1V17c0 .55-.45 1-1 1C7.61 18 0 10.391 0 1c0-.55.45-1 1-1h3.5c.55 0 1 .45 1 1 0 1.25.2 2.45.57 3.57.11.35.03.74-.25 1.02l-2.2 2.2z" fill="#5BC12C"/></symbol></svg>