<svg xmlns="http://www.w3.org/2000/svg" width="46" height="46" fill="none"><path stroke="#2D9CDB" stroke-width="4" d="M44 23c0 11.598-9.402 21-21 21S2 34.598 2 23 11.402 2 23 2s21 9.402 21 21Z"/><path fill="#fff" d="M13.462 19.64q1.584 0 2.466.792t.882 2.592V29h-2.682v-5.418q0-1.728-1.728-1.728-.414 0-.846.126t-.666.306L10.852 29H8.188V16.292h2.7v4.014a5.4 5.4 0 0 1 2.574-.666m5.604 6.822h2.61V29h-2.61zM24.411 29V15.992h2.558l3.603 10.064 3.71-10.064h2.284V29h-1.722V18.418l-3.586 9.712h-1.784l-3.48-9.738V29z"/></svg>